<?xml version="1.0" encoding="UTF-8"?>
<svg width="25px" height="24px" viewBox="0 0 25 24" version="1.1" xmlns="http://www.w3.org/2000/svg" xmlns:xlink="http://www.w3.org/1999/xlink">
    <!-- Generator: sketchtool 61 (101010) - https://sketch.com -->
    <title>1333B26C-7404-4557-AE7D-184494CD0FE0</title>
    <desc>Created with sketchtool.</desc>
    <g id="Asset-Artboard-Page" stroke="none" stroke-width="1" fill="none" fill-rule="evenodd">
        <g id="Icon/Checkbox/Checked-Icon/Filled/Archive/Dark_Grey" transform="translate(0.142857, 0.000000)">
            <polygon id="Path" points="0 0 24 0 24 24 0 24"></polygon>
            <path d="M20.54,5.23 L19.15,3.55 C18.88,3.21 18.47,3 18,3 L6,3 C5.53,3 5.12,3.21 4.84,3.55 L3.46,5.23 C3.17,5.57 3,6.02 3,6.5 L3,19 C3,20.1 3.9,21 5,21 L19,21 C20.1,21 21,20.1 21,19 L21,6.5 C21,6.02 20.83,5.57 20.54,5.23 Z M12,17.5 L6.5,12 L10,12 L10,10 L14,10 L14,12 L17.5,12 L12,17.5 Z M5.12,5 L5.93,4 L17.93,4 L18.87,5 L5.12,5 Z" id="Shape" fill="#637381" fill-rule="nonzero"></path>
        </g>
    </g>
</svg>