<?xml version="1.0" encoding="UTF-8"?>
<svg width="25px" height="24px" viewBox="0 0 25 24" version="1.1" xmlns="http://www.w3.org/2000/svg" xmlns:xlink="http://www.w3.org/1999/xlink">
    <!-- Generator: sketchtool 61 (101010) - https://sketch.com -->
    <title>4DF8D972-4A0F-426D-8440-DBFFBC170C68</title>
    <desc>Created with sketchtool.</desc>
    <g id="Asset-Artboard-Page" stroke="none" stroke-width="1" fill="none" fill-rule="evenodd">
        <g id="Icon/Checkbox/Checked-Icon/Outline/Download/Default" transform="translate(0.142857, 0.000000)">
            <polygon id="Path" points="0 0 24 0 24 24 0 24"></polygon>
            <path d="M19,12 L19,19 L5,19 L5,12 L3,12 L3,19 C3,20.1 3.9,21 5,21 L19,21 C20.1,21 21,20.1 21,19 L21,12 L19,12 Z M13,12.67 L15.59,10.09 L17,11.5 L12,16.5 L7,11.5 L8.41,10.09 L11,12.67 L11,3 L13,3 L13,12.67 Z" id="Shape" fill="#919EAB" fill-rule="nonzero"></path>
        </g>
    </g>
</svg>