<?xml version="1.0" encoding="UTF-8"?>
<svg width="24px" height="24px" viewBox="0 0 24 24" version="1.1" xmlns="http://www.w3.org/2000/svg" xmlns:xlink="http://www.w3.org/1999/xlink">
    <!-- Generator: sketchtool 61.2 (101010) - https://sketch.com -->
    <title>87E301C2-5546-4B0C-945A-E5C032342B6D</title>
    <desc>Created with sketchtool.</desc>
    <g id="Asset-Artboard-Page" stroke="none" stroke-width="1" fill="none" fill-rule="evenodd">
        <g id="Icon/Outline/Tag/Default-Icon/Filled/Tags/Grey">
            <polygon id="Path" fill="#FFFFFF" opacity="0" points="0 0 24 0 24 24 0 24"></polygon>
            <path d="M20.469,11.622 L12.369,3.522 C12.045,3.198 11.595,3 11.1,3 L4.8,3 C3.81,3 3,3.81 3,4.8 L3,11.1 C3,11.595 3.198,12.045 3.531,12.378 L11.631,20.478 C11.955,20.802 12.405,21 12.9,21 C13.395,21 13.845,20.802 14.169,20.469 L20.469,14.169 C20.802,13.845 21,13.395 21,12.9 C21,12.405 20.793,11.946 20.469,11.622 Z M6.15,7.5 C5.403,7.5 4.8,6.897 4.8,6.15 C4.8,5.403 5.403,4.8 6.15,4.8 C6.897,4.8 7.5,5.403 7.5,6.15 C7.5,6.897 6.897,7.5 6.15,7.5 Z" id="Shape" fill="#919EAB" fill-rule="nonzero"></path>
        </g>
    </g>
</svg>