<?xml version="1.0" encoding="UTF-8"?>
<svg width="20px" height="20px" viewBox="0 0 20 20" version="1.1" xmlns="http://www.w3.org/2000/svg" xmlns:xlink="http://www.w3.org/1999/xlink">
    <!-- Generator: sketchtool 61.1 (101010) - https://sketch.com -->
    <title>69AD9778-1427-40A5-8304-37E51ECAF988</title>
    <desc>Created with sketchtool.</desc>
    <g id="Asset-Artboard-Page" stroke="none" stroke-width="1" fill="none" fill-rule="evenodd">
        <g id="Icon/Filled/Error/Red">
            <polygon id="Path" points="0 0 20 0 20 20 0 20"></polygon>
            <path d="M10,1.66666667 C5.4,1.66666667 1.66666667,5.4 1.66666667,10 C1.66666667,14.6 5.4,18.3333333 10,18.3333333 C14.6,18.3333333 18.3333333,14.6 18.3333333,10 C18.3333333,5.4 14.6,1.66666667 10,1.66666667 Z M10.8333333,14.1666667 L9.16666667,14.1666667 L9.16666667,9.16666667 L10.8333333,9.16666667 L10.8333333,14.1666667 Z M10.8333333,7.5 L9.16666667,7.5 L9.16666667,5.83333333 L10.8333333,5.83333333 L10.8333333,7.5 Z" id="Shape" fill="#DA1E28" fill-rule="nonzero" transform="translate(10.000000, 10.000000) scale(1, -1) translate(-10.000000, -10.000000) "></path>
        </g>
    </g>
</svg>