<?xml version="1.0" encoding="UTF-8"?>
<svg width="20px" height="20px" viewBox="0 0 20 20" version="1.1" xmlns="http://www.w3.org/2000/svg" xmlns:xlink="http://www.w3.org/1999/xlink">
    <!-- Generator: sketchtool 60.1 (101010) - https://sketch.com -->
    <title>31AF6409-4AA5-4DD5-B39C-90C590EE43B3</title>
    <desc>Created with sketchtool.</desc>
    <g id="Asset-Artboard-Page" stroke="none" stroke-width="1" fill="none" fill-rule="evenodd">
        <g id="Icon/Outline/Search/Teal">
            <polygon id="Path" fill="#FFFFFF" opacity="0" points="0 0 20 0 20 20 0 20"></polygon>
            <path d="M12.9166665,11.6666665 L12.2583332,11.6666665 L12.0249999,11.4416665 C12.8416665,10.4916666 13.3333332,9.25833324 13.3333332,7.9166666 C13.3333332,4.92499997 10.9083332,2.5 7.9166666,2.5 C4.92499997,2.5 2.5,4.92499997 2.5,7.9166666 C2.5,10.9083332 4.92499997,13.3333332 7.9166666,13.3333332 C9.25833324,13.3333332 10.4916666,12.8416665 11.4416665,12.0249999 L11.6666665,12.2583332 L11.6666665,12.9166665 L15.8333332,17.0749998 L17.0749998,15.8333332 L12.9166665,11.6666665 Z M7.91666667,11.6666667 C5.84166667,11.6666667 4.16666667,9.99166667 4.16666667,7.91666667 C4.16666667,5.84166667 5.84166667,4.16666667 7.91666667,4.16666667 C9.99166667,4.16666667 11.6666667,5.84166667 11.6666667,7.91666667 C11.6666667,9.99166667 9.99166667,11.6666667 7.91666667,11.6666667 Z" id="Shape" fill="#919EAB" fill-rule="nonzero"></path>
        </g>
    </g>
</svg>