<?xml version="1.0" encoding="UTF-8"?>
<svg width="20px" height="20px" viewBox="0 0 20 20" version="1.1" xmlns="http://www.w3.org/2000/svg" xmlns:xlink="http://www.w3.org/1999/xlink">
    <!-- Generator: sketchtool 60.1 (101010) - https://sketch.com -->
    <title>E6435D76-2FCF-4F83-A800-F305C8916B62</title>
    <desc>Created with sketchtool.</desc>
    <g id="Asset-Artboard-Page" stroke="none" stroke-width="1" fill="none" fill-rule="evenodd">
        <g id="Icon/View_Column-Icon/Filled/Display_Settings/Default">
            <polygon id="Path" fill="#FFFFFF" opacity="0" points="0 0 20 0 20 20 0 20"></polygon>
            <path d="M8.33333333,8.34999998 L12.5,8.34999998 L12.5,17.4999996 L8.33333333,17.4999996 L8.33333333,8.34999998 Z M14.1666667,17.5 L16.6666667,17.5 C17.5833333,17.5 18.3333333,16.75 18.3333333,15.8333333 L18.3333333,8.33333333 L14.1666667,8.33333333 L14.1666667,17.5 Z M16.6666667,2.5 L4.16666667,2.5 C3.25,2.5 2.5,3.25 2.5,4.16666667 L2.5,6.66666667 L18.3333333,6.66666667 L18.3333333,4.16666667 C18.3333333,3.25 17.5833333,2.5 16.6666667,2.5 Z M2.5,15.8333333 C2.5,16.75 3.25,17.5 4.16666667,17.5 L6.66666667,17.5 L6.66666667,8.33333333 L2.5,8.33333333 L2.5,15.8333333 Z" id="Shape" fill="#919EAB" fill-rule="nonzero"></path>
        </g>
    </g>
</svg>